<svg width='3' height='3' viewBox="0 -5 20 30" fill="none" xmlns="http://www.w3.org/2000/svg">
<path fill-rule="evenodd" clip-rule="evenodd" d="M15.75 15.7528C15.888 15.6157 15.8884 15.3926 15.7509 15.255L12.6354 12.1366C13.6961 10.952 14.3458 9.39466 14.3458 7.67917C14.3458 3.99156 11.3571 1 7.67291 1C3.98876 1 1 3.99156 1 7.67917C1 11.3668 3.98876 14.3583 7.67291 14.3583C9.39382 14.3583 10.9532 13.701 12.1367 12.6323L15.2535 15.7519C15.3904 15.889 15.6125 15.8894 15.75 15.7528ZM1.70241 7.67917C1.70241 4.38528 4.38211 1.70307 7.67291 1.70307C10.9637 1.70307 13.6434 4.38528 13.6434 7.67917C13.6434 10.9731 10.9637 13.6553 7.67291 13.6553C4.38211 13.6553 1.70241 10.9731 1.70241 7.67917Z" fill="#262626" stroke="black" stroke-linecap="round" stroke-linejoin="round"/>
</svg>
