<?xml version="1.0" encoding="utf-8"?><!-- Uploaded to: SVG Repo, www.svgrepo.com, Generator: SVG Repo Mixer Tools -->
<svg width="19" height="20" viewBox="0 0 19 20" fill="none" xmlns="http://www.w3.org/2000/svg">
<path d="M11.363 3.65201L12.843 2.17201C13.0287 1.98621 13.2492 1.83882 13.4919 1.73826C13.7346 1.6377 13.9948 1.58594 14.2575 1.58594C14.5202 1.58594 14.7803 1.6377 15.023 1.73826C15.2658 1.83882 15.4863 1.98621 15.672 2.17201L17.086 3.58601C17.4609 3.96107 17.6716 4.46968 17.6716 5.00001C17.6716 5.53034 17.4609 6.03895 17.086 6.41401L15.606 7.89401M11.363 3.65201L1.74699 13.267C1.41497 13.599 1.21036 14.0373 1.16899 14.505L0.926992 17.245C0.913995 17.3907 0.933103 17.5374 0.982968 17.6749C1.03283 17.8123 1.11224 17.9372 1.2156 18.0407C1.31896 18.1441 1.44375 18.2236 1.58118 18.2736C1.7186 18.3236 1.86532 18.3429 2.01099 18.33L4.75099 18.088C5.21942 18.0471 5.65846 17.8425 5.99099 17.51L15.606 7.89401M11.363 3.65201L15.606 7.89401" stroke="black" stroke-width="1.5" stroke-linecap="round" stroke-linejoin="round"/>
</svg>
