<svg width="22" height="22" viewBox="0 0 22 22" fill="none" xmlns="http://www.w3.org/2000/svg">
<path fill-rule="evenodd" clip-rule="evenodd" d="M11 20.7C16.3572 20.7 20.7 16.3572 20.7 11C20.7 5.64284 16.3572 1.3 11 1.3C5.64284 1.3 1.3 5.64284 1.3 11C1.3 16.3572 5.64284 20.7 11 20.7ZM11 22C17.0751 22 22 17.0751 22 11C22 4.92487 17.0751 0 11 0C4.92487 0 0 4.92487 0 11C0 17.0751 4.92487 22 11 22Z" fill="black"/>
<path fill-rule="evenodd" clip-rule="evenodd" d="M12.8794 5.50635C14.3965 5.50635 15.6263 6.73617 15.6263 8.25324C15.6263 9.77031 14.3965 11.0001 12.8794 11.0001C11.3624 11.0001 10.1326 9.77031 10.1326 8.25324C10.1326 6.73617 11.3624 5.50635 12.8794 5.50635ZM6.6589 8.48352C6.63018 8.27182 6.44871 8.10865 6.22914 8.10865L6.17029 8.11261L6.11384 8.12414C5.93027 8.17464 5.79543 8.34275 5.79543 8.54237V10.1327H4.20514L4.14629 10.1366C3.93459 10.1654 3.77142 10.3468 3.77142 10.5664L3.77538 10.6252C3.8041 10.8369 3.98557 11.0001 4.20514 11.0001H5.79543V12.5904L5.79939 12.6493C5.8281 12.861 6.00957 13.0241 6.22914 13.0241L6.28799 13.0202C6.49969 12.9915 6.66286 12.81 6.66286 12.5904V11.0001H8.25314L8.312 10.9962C8.52369 10.9674 8.68686 10.786 8.68686 10.5664L8.6829 10.5075C8.65418 10.2958 8.47272 10.1327 8.25314 10.1327H6.66286V8.54237L6.6589 8.48352ZM14.3251 11.8674H11.4337L11.3086 11.87C9.68985 11.9356 8.39769 13.2686 8.39769 14.9035V15.3372L8.40165 15.3961C8.43037 15.6078 8.61184 15.7709 8.83141 15.7709C9.07094 15.7709 9.26512 15.5767 9.26512 15.3372V14.9035L9.26813 14.7883C9.328 13.6442 10.2747 12.7349 11.4337 12.7349H14.3251L14.4403 12.7379C15.5844 12.7978 16.4937 13.7444 16.4937 14.9035V15.3372L16.4977 15.3961C16.5264 15.6078 16.7078 15.7709 16.9274 15.7709C17.167 15.7709 17.3611 15.5767 17.3611 15.3372V14.9035L17.3586 14.7783C17.293 13.1596 15.96 11.8674 14.3251 11.8674ZM11 8.25323C11 7.21524 11.8414 6.37378 12.8794 6.37378C13.9174 6.37378 14.7589 7.21524 14.7589 8.25323C14.7589 9.29123 13.9174 10.1327 12.8794 10.1327C11.8414 10.1327 11 9.29123 11 8.25323Z" fill="black"/>
<path fill-rule="evenodd" clip-rule="evenodd" d="M9.93256 8.25325C9.93256 6.62575 11.2519 5.3064 12.8794 5.3064C14.5069 5.3064 15.8263 6.62575 15.8263 8.25325C15.8263 9.88076 14.5069 11.2001 12.8794 11.2001C11.2519 11.2001 9.93256 9.88076 9.93256 8.25325ZM12.8794 5.7064C11.4728 5.7064 10.3326 6.84666 10.3326 8.25325C10.3326 9.65984 11.4728 10.8001 12.8794 10.8001C14.286 10.8001 15.4263 9.65984 15.4263 8.25325C15.4263 6.84666 14.286 5.7064 12.8794 5.7064ZM10.8 8.25325C10.8 7.10481 11.731 6.17382 12.8794 6.17382C14.0278 6.17382 14.9588 7.10481 14.9588 8.25325C14.9588 9.40168 14.0278 10.3327 12.8794 10.3327C11.731 10.3327 10.8 9.40168 10.8 8.25325ZM12.8794 6.57382C11.9519 6.57382 11.2 7.32572 11.2 8.25325C11.2 9.18077 11.9519 9.93268 12.8794 9.93268C13.8069 9.93268 14.5588 9.18077 14.5588 8.25325C14.5588 7.32572 13.8069 6.57382 12.8794 6.57382ZM6.22913 7.90866C6.55012 7.90866 6.81509 8.14713 6.85707 8.45664L6.8589 8.47007L6.8633 8.54238L6.86285 9.93266H8.25313C8.57412 9.93266 8.83909 10.1711 8.88107 10.4806L8.8829 10.4941L8.8873 10.5664C8.8873 10.8874 8.64838 11.1523 8.33887 11.1943L8.32544 11.1961L8.25313 11.2005L6.86285 11.2001V12.5904C6.86285 12.9114 6.62438 13.1763 6.31487 13.2183L6.30144 13.2201L6.22913 13.2245C5.90815 13.2245 5.64318 12.9856 5.6012 12.6761L5.59937 12.6627L5.59497 12.5904L5.59542 11.2001H4.20513C3.88415 11.2001 3.61918 10.9616 3.5772 10.6521L3.57537 10.6387L3.57097 10.5664C3.57097 10.2454 3.80988 9.98043 4.1194 9.93844L4.13283 9.93662L4.20513 9.93221L5.59542 9.93266V8.54238C5.59542 8.25043 5.79266 8.00507 6.06079 7.93132L6.07371 7.92777L6.14343 7.91398L6.22913 7.90866ZM6.23484 8.30873L6.19713 8.31127L6.16145 8.31856C6.06523 8.34758 5.99542 8.43707 5.99542 8.54238V10.3327H4.21186L4.1675 10.3356C4.05821 10.3532 3.97422 10.447 3.97149 10.5607L3.9744 10.604C3.99228 10.7151 4.08895 10.8001 4.20513 10.8001H5.99542V12.5837L5.9984 12.628C6.01599 12.7373 6.10979 12.8213 6.22343 12.824L6.26677 12.8211C6.37788 12.8032 6.46285 12.7066 6.46285 12.5904V10.8001H8.24642L8.29076 10.7971C8.40006 10.7795 8.48405 10.6857 8.48678 10.5721L8.48387 10.5287C8.46599 10.4176 8.36933 10.3327 8.25313 10.3327H6.46285V8.5491L6.45987 8.50475C6.44228 8.39545 6.34848 8.31146 6.23484 8.30873ZM11.4337 11.6674H14.3251C16.0677 11.6674 17.4885 13.0447 17.5584 14.7702L17.5586 14.7742L17.5612 14.9034L17.5611 15.3371C17.5611 15.6871 17.2774 15.9708 16.9274 15.9708C16.6064 15.9708 16.3414 15.7324 16.2995 15.4229L16.2976 15.4094L16.2932 15.3371L16.2937 14.9034C16.2937 13.8522 15.4696 12.9933 14.4324 12.9377L14.3225 12.9348H11.4337C10.3825 12.9348 9.52359 13.7589 9.46798 14.7961L9.46511 14.906V15.3371C9.46511 15.6871 9.18139 15.9708 8.8314 15.9708C8.51041 15.9708 8.24545 15.7324 8.20346 15.4229L8.20164 15.4094L8.19723 15.3371L8.19768 14.9034C8.19768 13.1608 9.57495 11.7401 11.3004 11.6701L11.3045 11.6699L11.4337 11.6674ZM11.4357 12.0674L11.3146 12.0699C9.80365 12.1322 8.59768 13.377 8.59768 14.9034V15.3304L8.60067 15.3748C8.61855 15.4859 8.71521 15.5708 8.8314 15.5708C8.96048 15.5708 9.06511 15.4662 9.06511 15.3371V14.8982L9.06832 14.7778C9.13372 13.528 10.1677 12.5348 11.4337 12.5348H14.3303L14.4507 12.538C15.7006 12.6034 16.6937 13.6374 16.6937 14.9034V15.3304L16.6967 15.3748C16.7145 15.4859 16.8112 15.5708 16.9274 15.5708C17.0565 15.5708 17.1611 15.4662 17.1611 15.3371V14.9054L17.1587 14.7843C17.0963 13.2734 15.8515 12.0674 14.3251 12.0674H11.4357Z" fill="black"/>
</svg>
