<svg width="100" height="100" viewBox="0 0 100 100" fill="none" xmlns="http://www.w3.org/2000/svg">
<path fill-rule="evenodd" clip-rule="evenodd" d="M49.8919 12.473C29.226 12.473 12.473 29.2261 12.473 49.8919C12.473 59.8129 16.3339 68.832 22.6351 75.5288C25.3995 70.1794 30.9822 66.5226 37.4189 66.5226H62.3649C68.8016 66.5226 74.3843 70.1794 77.1487 75.5288C83.4499 68.832 87.3108 59.8129 87.3108 49.8919C87.3108 29.2261 70.5578 12.473 49.8919 12.473ZM70.4417 81.168C69.5516 77.5341 66.2731 74.8379 62.3649 74.8379H37.4189C33.5107 74.8379 30.2322 77.5342 29.342 81.168C35.2402 85.0512 42.3022 87.3109 49.8919 87.3109C57.4816 87.3109 64.5436 85.0512 70.4417 81.168ZM4.15765 49.8919C4.15765 24.6336 24.6336 4.15771 49.8919 4.15771C75.1502 4.15771 95.6261 24.6336 95.6261 49.8919C95.6261 75.1503 75.1502 95.6262 49.8919 95.6262C24.6336 95.6262 4.15765 75.1503 4.15765 49.8919ZM49.8919 29.1037C43.0033 29.1037 37.4189 34.688 37.4189 41.5766C37.4189 48.4653 43.0033 54.0496 49.8919 54.0496C56.7805 54.0496 62.3649 48.4653 62.3649 41.5766C62.3649 34.688 56.7805 29.1037 49.8919 29.1037ZM29.1036 41.5766C29.1036 30.0956 38.4108 20.7883 49.8919 20.7883C61.3729 20.7883 70.6802 30.0956 70.6802 41.5766C70.6802 53.0577 61.3729 62.3649 49.8919 62.3649C38.4108 62.3649 29.1036 53.0577 29.1036 41.5766Z" fill="black"/>
</svg>
