<svg width="20" height="20" viewBox="0 0 20 20" fill="none" xmlns="http://www.w3.org/2000/svg">
<path fill-rule="evenodd" clip-rule="evenodd" d="M16.1613 1.5H3C2.17157 1.5 1.5 2.17157 1.5 3V16.1613C1.5 16.9897 2.17157 17.6613 3 17.6613H16.1613C16.9897 17.6613 17.6613 16.9897 17.6613 16.1613V3C17.6613 2.17157 16.9897 1.5 16.1613 1.5ZM3 0C1.34315 0 0 1.34314 0 3V16.1613C0 17.8181 1.34314 19.1613 3 19.1613H16.1613C17.8181 19.1613 19.1613 17.8181 19.1613 16.1613V3C19.1613 1.34315 17.8181 0 16.1613 0H3Z" fill="black"/>
<path d="M5.44192 4.52731C5.44192 5.03238 5.03247 5.44183 4.5274 5.44183C4.02233 5.44183 3.61288 5.03238 3.61288 4.52731C3.61288 4.02224 4.02233 3.61279 4.5274 3.61279C5.03247 3.61279 5.44192 4.02224 5.44192 4.52731Z" fill="black"/>
<path fill-rule="evenodd" clip-rule="evenodd" d="M14.903 9.03814C14.8126 8.9417 14.6627 8.93232 14.561 9.01672L8.17093 14.3181C7.45877 14.9089 6.40974 14.8432 5.77687 14.1681L4.49008 12.7956C4.3958 12.695 4.2379 12.6897 4.13712 12.7838L1.38268 15.3546C1.07987 15.6372 0.605278 15.6209 0.322653 15.3181C0.040027 15.0152 0.0563923 14.5406 0.359205 14.258L3.11364 11.6872C3.8191 11.0288 4.9244 11.0657 5.58439 11.7697L6.87117 13.1422C6.96158 13.2387 7.11144 13.2481 7.21318 13.1636L13.6032 7.86229C14.3154 7.27146 15.3644 7.33716 15.9973 8.01223L18.8375 11.0417C19.1207 11.3439 19.1054 11.8186 18.8033 12.1019C18.5011 12.3851 18.0264 12.3698 17.7431 12.0677L14.903 9.03814Z" fill="black"/>
</svg>
