<svg width="13" height="13" viewBox="0 0 13 13" fill="none" xmlns="http://www.w3.org/2000/svg">
<path fill-rule="evenodd" clip-rule="evenodd" d="M7.78581 2.58803C7.22225 2.71187 6.71772 3.06045 6.43487 3.3433C6.23961 3.53856 5.92302 3.53856 5.72776 3.3433C5.5325 3.14804 5.5325 2.83145 5.72776 2.63619C6.10818 2.25578 6.77531 1.78623 7.57117 1.61133C8.39828 1.42956 9.35149 1.57323 10.1924 2.41417C11.0334 3.2551 11.177 4.20831 10.9953 5.03543C10.8204 5.83128 10.3508 6.49842 9.9704 6.87883C9.77514 7.07409 9.45856 7.07409 9.26329 6.87883C9.06803 6.68357 9.06803 6.36699 9.26329 6.17173C9.54614 5.88888 9.89472 5.38434 10.0186 4.82078C10.1355 4.28849 10.0586 3.69456 9.48532 3.12127C8.91204 2.54799 8.3181 2.47105 7.78581 2.58803Z" fill="black"/>
<path fill-rule="evenodd" clip-rule="evenodd" d="M4.82002 10.0197C5.38276 9.89646 5.88635 9.54874 6.16856 9.26653C6.36382 9.07127 6.6804 9.07127 6.87566 9.26653C7.07093 9.4618 7.07093 9.77838 6.87566 9.97364C6.49569 10.3536 5.82925 10.8224 5.03393 10.9965C4.20734 11.1775 3.25492 11.0331 2.41426 10.1924C1.5736 9.35174 1.42911 8.39933 1.61012 7.57273C1.78428 6.77742 2.25305 6.11097 2.63302 5.731C2.82829 5.53574 3.14487 5.53574 3.34013 5.731C3.53539 5.92626 3.53539 6.24284 3.34013 6.43811C3.05792 6.72031 2.71021 7.22391 2.58698 7.78664C2.4706 8.3181 2.54782 8.91174 3.12137 9.48529C3.69492 10.0588 4.28857 10.1361 4.82002 10.0197Z" fill="black"/>
<path fill-rule="evenodd" clip-rule="evenodd" d="M8.07111 4.53556C8.26638 4.73082 8.26638 5.0474 8.07111 5.24267L5.24269 8.07109C5.04742 8.26636 4.73084 8.26636 4.53558 8.07109C4.34032 7.87583 4.34032 7.55925 4.53558 7.36399L7.36401 4.53556C7.55927 4.3403 7.87585 4.3403 8.07111 4.53556Z" fill="black"/>
</svg>
