<svg width="42" height="42" viewBox="0 0 42 42" fill="none" xmlns="http://www.w3.org/2000/svg">
<path fill-rule="evenodd" clip-rule="evenodd" d="M21 40.5C31.7696 40.5 40.5 31.7696 40.5 21C40.5 10.2304 31.7696 1.5 21 1.5C10.2304 1.5 1.5 10.2304 1.5 21C1.5 31.7696 10.2304 40.5 21 40.5ZM21 42C32.598 42 42 32.598 42 21C42 9.40202 32.598 0 21 0C9.40202 0 0 9.40202 0 21C0 32.598 9.40202 42 21 42Z" fill="black"/>
<path fill-rule="evenodd" clip-rule="evenodd" d="M17.875 12.75L15.7 15.65C15.4438 15.9915 15.1117 16.2687 14.7298 16.4597C14.348 16.6506 13.9269 16.75 13.5 16.75H13C12.6685 16.75 12.3505 16.8817 12.1161 17.1161C11.8817 17.3505 11.75 17.6685 11.75 18V28C11.75 28.3315 11.8817 28.6495 12.1161 28.8839C12.3505 29.1183 12.6685 29.25 13 29.25H29C29.3315 29.25 29.6495 29.1183 29.8839 28.8839C30.1183 28.6495 30.25 28.3315 30.25 28V18C30.25 17.6685 30.1183 17.3505 29.8839 17.1161C29.6495 16.8817 29.3315 16.75 29 16.75H28.5C28.0731 16.75 27.652 16.6506 27.2702 16.4597C26.8883 16.2687 26.5562 15.9915 26.3 15.65L24.125 12.75H17.875ZM17.1963 11.3925C17.3837 11.2988 17.5904 11.25 17.8 11.25H24.2C24.4096 11.25 24.6163 11.2988 24.8037 11.3925C24.9912 11.4863 25.1543 11.6223 25.28 11.79L27.5 14.75C27.6164 14.9052 27.7674 15.0312 27.941 15.118C28.1146 15.2048 28.3059 15.25 28.5 15.25H29C29.7293 15.25 30.4288 15.5397 30.9445 16.0555C31.4603 16.5712 31.75 17.2707 31.75 18V28C31.75 28.7293 31.4603 29.4288 30.9445 29.9445C30.4288 30.4603 29.7293 30.75 29 30.75H13C12.2707 30.75 11.5712 30.4603 11.0555 29.9445C10.5397 29.4288 10.25 28.7293 10.25 28V18C10.25 17.2707 10.5397 16.5712 11.0555 16.0555C11.5712 15.5397 12.2707 15.25 13 15.25H13.5C13.6941 15.25 13.8854 15.2048 14.059 15.118C14.2326 15.0312 14.3836 14.9052 14.5 14.75L16.72 11.79C16.8457 11.6223 17.0088 11.4863 17.1963 11.3925Z" fill="black"/>
<path fill-rule="evenodd" clip-rule="evenodd" d="M17.6412 18.6412C18.532 17.7504 19.7402 17.25 21 17.25C22.2598 17.25 23.468 17.7504 24.3588 18.6412C25.2496 19.532 25.75 20.7402 25.75 22C25.75 23.2598 25.2496 24.468 24.3588 25.3588C23.468 26.2496 22.2598 26.75 21 26.75C19.7402 26.75 18.532 26.2496 17.6412 25.3588C16.7504 24.468 16.25 23.2598 16.25 22C16.25 20.7402 16.7504 19.532 17.6412 18.6412ZM21 18.75C20.138 18.75 19.3114 19.0924 18.7019 19.7019C18.0924 20.3114 17.75 21.138 17.75 22C17.75 22.862 18.0924 23.6886 18.7019 24.2981C19.3114 24.9076 20.138 25.25 21 25.25C21.862 25.25 22.6886 24.9076 23.2981 24.2981C23.9076 23.6886 24.25 22.862 24.25 22C24.25 21.138 23.9076 20.3114 23.2981 19.7019C22.6886 19.0924 21.862 18.75 21 18.75Z" fill="black"/>
</svg>
