<svg width="22" height="22" viewBox="0 0 22 22" fill="none" xmlns="http://www.w3.org/2000/svg">
<path fill-rule="evenodd" clip-rule="evenodd" d="M6.5 15.5H1.5V20.5H6.5V15.5ZM0 14V22H8V14H0Z" fill="black"/>
<path fill-rule="evenodd" clip-rule="evenodd" d="M13.5 15.5H8.49997V20.5H13.5V15.5ZM6.99997 14V22H15V14H6.99997Z" fill="black"/>
<path fill-rule="evenodd" clip-rule="evenodd" d="M20.5 15.5H15.5V20.5H20.5V15.5ZM14 14V22H22V14H14Z" fill="black"/>
<path fill-rule="evenodd" clip-rule="evenodd" d="M6.5 8.5H1.5V13.5H6.5V8.5ZM0 7V15H8V7H0Z" fill="black"/>
<path fill-rule="evenodd" clip-rule="evenodd" d="M13.5 8.5H8.49997V13.5H13.5V8.5ZM6.99997 7V15H15V7H6.99997Z" fill="black"/>
<path fill-rule="evenodd" clip-rule="evenodd" d="M20.5 8.5H15.5V13.5H20.5V8.5ZM14 7V15H22V7H14Z" fill="black"/>
<path fill-rule="evenodd" clip-rule="evenodd" d="M6.5 1.5H1.5V6.5H6.5V1.5ZM0 0V8H8V0H0Z" fill="black"/>
<path fill-rule="evenodd" clip-rule="evenodd" d="M13.5 1.5H8.49997V6.5H13.5V1.5ZM6.99997 0V8H15V0H6.99997Z" fill="black"/>
<path fill-rule="evenodd" clip-rule="evenodd" d="M20.5 1.5H15.5V6.5H20.5V1.5ZM14 0V8H22V0H14Z" fill="black"/>
</svg>
