<svg width="40" height="40" viewBox="0 0 40 40" fill="none" xmlns="http://www.w3.org/2000/svg">
<path d="M25 18.25H24.75V16C24.75 14.7402 24.2496 13.532 23.3588 12.6412C22.468 11.7504 21.2598 11.25 20 11.25C18.7402 11.25 17.532 11.7504 16.6412 12.6412C15.7504 13.532 15.25 14.7402 15.25 16V18.25H15C14.2707 18.25 13.5712 18.5397 13.0555 19.0555C12.5397 19.5712 12.25 20.2707 12.25 21V26C12.25 26.7293 12.5397 27.4288 13.0555 27.9445C13.5712 28.4603 14.2707 28.75 15 28.75H25C25.7293 28.75 26.4288 28.4603 26.9445 27.9445C27.4603 27.4288 27.75 26.7293 27.75 26V21C27.75 20.2707 27.4603 19.5712 26.9445 19.0555C26.4288 18.5397 25.7293 18.25 25 18.25ZM16.75 16C16.75 15.138 17.0924 14.3114 17.7019 13.7019C18.3114 13.0924 19.138 12.75 20 12.75C20.862 12.75 21.6886 13.0924 22.2981 13.7019C22.9076 14.3114 23.25 15.138 23.25 16V18.25H16.75V16ZM26.25 26C26.25 26.3315 26.1183 26.6495 25.8839 26.8839C25.6495 27.1183 25.3315 27.25 25 27.25H15C14.6685 27.25 14.3505 27.1183 14.1161 26.8839C13.8817 26.6495 13.75 26.3315 13.75 26V21C13.75 20.6685 13.8817 20.3505 14.1161 20.1161C14.3505 19.8817 14.6685 19.75 15 19.75H25C25.3315 19.75 25.6495 19.8817 25.8839 20.1161C26.1183 20.3505 26.25 20.6685 26.25 21V26Z" fill="black"/>
<path fill-rule="evenodd" clip-rule="evenodd" d="M20 38.5C30.2173 38.5 38.5 30.2173 38.5 20C38.5 9.78273 30.2173 1.5 20 1.5C9.78273 1.5 1.5 9.78273 1.5 20C1.5 30.2173 9.78273 38.5 20 38.5ZM20 40C31.0457 40 40 31.0457 40 20C40 8.9543 31.0457 0 20 0C8.9543 0 0 8.9543 0 20C0 31.0457 8.9543 40 20 40Z" fill="black"/>
</svg>
