<svg width="20" height="21" viewBox="0 0 20 21" fill="none" xmlns="http://www.w3.org/2000/svg">
<path fill-rule="evenodd" clip-rule="evenodd" d="M9.23089 0.242207C9.37486 0.0857166 9.57849 -0.00230394 9.79113 4.5873e-05C10.0038 0.00239567 10.2054 0.0948947 10.3459 0.25453L12.1497 2.30429H16.7235C18.2423 2.30429 19.4735 3.53551 19.4735 5.0543V17.6452C19.4735 19.164 18.2423 20.3952 16.7235 20.3952H2.75C1.23122 20.3952 0 19.164 0 17.6452V5.0543C0 3.53551 1.23122 2.30429 2.75 2.30429H7.33377L9.23089 0.242207ZM9.7856 0.500015C9.71472 0.499232 9.64684 0.528572 9.59885 0.580736L7.55318 2.80429H2.75C1.50736 2.80429 0.5 3.81165 0.5 5.0543V17.6452C0.5 18.8879 1.50736 19.8952 2.75 19.8952H16.7235C17.9661 19.8952 18.9735 18.8879 18.9735 17.6452V5.0543C18.9735 3.81165 17.9661 2.80429 16.7235 2.80429H11.9236L9.97052 0.584843C9.92369 0.531632 9.85648 0.500799 9.7856 0.500015ZM9.77871 1.12373L11.6229 3.21945C11.6704 3.27339 11.7388 3.30429 11.8106 3.30429H16.7235C17.69 3.30429 18.4735 4.0878 18.4735 5.0543V17.6452C18.4735 18.6117 17.69 19.3952 16.7235 19.3952H15.7465L15.7245 19.1694C15.4856 16.7095 13.4117 14.7866 10.8889 14.7866H8.12378C5.60105 14.7866 3.52713 16.7095 3.28818 19.1694L3.26624 19.3952H2.75C1.7835 19.3952 1 18.6117 1 17.6452V5.0543C1 4.0878 1.7835 3.30429 2.75 3.30429H7.66289C7.7328 3.30429 7.79953 3.27501 7.84687 3.22356L9.77871 1.12373ZM9.77045 1.8712L8.21483 3.56209C8.07282 3.71645 7.87264 3.80429 7.66289 3.80429H2.75C2.05964 3.80429 1.5 4.36394 1.5 5.0543V17.6452C1.5 18.3356 2.05964 18.8952 2.75 18.8952H2.81729C3.18219 16.2907 5.4188 14.2866 8.12378 14.2866H10.8889C13.5939 14.2866 15.8305 16.2907 16.1954 18.8952H16.7235C17.4139 18.8952 17.9735 18.3356 17.9735 17.6452V5.0543C17.9735 4.36394 17.4139 3.80429 16.7235 3.80429H11.8106C11.5951 3.80429 11.39 3.71157 11.2476 3.54977L9.77045 1.8712ZM9.69052 6.06916C7.79239 6.06916 6.25365 7.6079 6.25365 9.50603C6.25365 11.4042 7.79239 12.9429 9.69052 12.9429C11.5886 12.9429 13.1274 11.4042 13.1274 9.50603C13.1274 7.6079 11.5886 6.06916 9.69052 6.06916ZM5.75365 9.50603C5.75365 7.33175 7.51624 5.56916 9.69052 5.56916C11.8648 5.56916 13.6274 7.33175 13.6274 9.50603C13.6274 11.6803 11.8648 13.4429 9.69052 13.4429C7.51624 13.4429 5.75365 11.6803 5.75365 9.50603ZM9.69052 7.06916C8.34467 7.06916 7.25365 8.16018 7.25365 9.50603C7.25365 10.8519 8.34467 11.9429 9.69052 11.9429C11.0364 11.9429 12.1274 10.8519 12.1274 9.50603C12.1274 8.16018 11.0364 7.06916 9.69052 7.06916ZM6.75365 9.50603C6.75365 7.88404 8.06853 6.56916 9.69052 6.56916C11.3125 6.56916 12.6274 7.88404 12.6274 9.50603C12.6274 11.128 11.3125 12.4429 9.69052 12.4429C8.06853 12.4429 6.75365 11.128 6.75365 9.50603ZM3.79713 19.1151C4.05886 16.9578 5.89597 15.2866 8.12378 15.2866H10.8889C13.1167 15.2866 14.9539 16.9578 15.2156 19.1151L15.2496 19.3952H3.76314L3.79713 19.1151ZM4.33799 18.8952H14.6747C14.3258 17.1233 12.7633 15.7866 10.8889 15.7866H8.12378C6.24944 15.7866 4.68695 17.1233 4.33799 18.8952Z" fill="#C3C3C3"/>
</svg>
