<svg width="21" height="22" viewBox="0 0 21 22" fill="none" xmlns="http://www.w3.org/2000/svg">
<path fill-rule="evenodd" clip-rule="evenodd" d="M10.5384 1.00003C10.6801 1.0016 10.8145 1.06326 10.9082 1.16969L12.7866 3.30429H17.4735C18.8542 3.30429 19.9735 4.42358 19.9735 5.8043V12.0998V18.3952C19.9735 19.7759 18.8542 20.8952 17.4735 20.8952H3.5C2.11929 20.8952 1 19.7759 1 18.3952V5.8043C1 4.42358 2.11929 3.30429 3.5 3.30429H8.19347L10.1649 1.16147C10.2609 1.05714 10.3966 0.998464 10.5384 1.00003ZM10.5246 2.24747L8.78085 4.14282C8.68617 4.24573 8.55272 4.30429 8.41289 4.30429H3.5C2.67157 4.30429 2 4.97587 2 5.8043V18.3952C2 19.2236 2.67157 19.8952 3.5 19.8952H3.78935C4.04062 17.3085 6.22109 15.2866 8.87378 15.2866H11.6389C14.2916 15.2866 16.4721 17.3085 16.7234 19.8952H17.4735C18.3019 19.8952 18.9735 19.2236 18.9735 18.3952V12.0998V5.8043C18.9735 4.97587 18.3019 4.30429 17.4735 4.30429H12.5606C12.4169 4.30429 12.2802 4.24248 12.1853 4.13461L10.5246 2.24747ZM15.7174 19.8952C15.4707 17.8619 13.7388 16.2866 11.6389 16.2866H8.87378C6.77392 16.2866 5.042 17.8619 4.79531 19.8952H15.7174ZM10.4405 12.9429C11.9244 12.9429 13.1274 11.7399 13.1274 10.256C13.1274 8.77211 11.9244 7.56916 10.4405 7.56916C8.9566 7.56916 7.75365 8.77211 7.75365 10.256C7.75365 11.7399 8.9566 12.9429 10.4405 12.9429ZM10.4405 13.9429C12.4767 13.9429 14.1274 12.2922 14.1274 10.256C14.1274 8.21982 12.4767 6.56916 10.4405 6.56916C8.40431 6.56916 6.75365 8.21982 6.75365 10.256C6.75365 12.2922 8.40431 13.9429 10.4405 13.9429Z" fill="black"/>
<path d="M10.9082 1.16969L10.7205 1.33484L10.7205 1.33484L10.9082 1.16969ZM10.5384 1.00003L10.5411 0.750046L10.5411 0.750046L10.5384 1.00003ZM12.7866 3.30429L12.599 3.46945L12.6736 3.55429H12.7866V3.30429ZM8.19347 3.30429V3.55429H8.30318L8.37746 3.47356L8.19347 3.30429ZM10.1649 1.16147L9.98089 0.992207L9.98089 0.992208L10.1649 1.16147ZM8.78085 4.14282L8.96483 4.31209L8.96483 4.31209L8.78085 4.14282ZM10.5246 2.24747L10.7123 2.08231L10.5287 1.87373L10.3406 2.07821L10.5246 2.24747ZM3.78935 19.8952V20.1452H4.01624L4.03818 19.9194L3.78935 19.8952ZM16.7234 19.8952L16.4745 19.9194L16.4965 20.1452H16.7234V19.8952ZM12.1853 4.13461L11.9976 4.29977L11.9976 4.29977L12.1853 4.13461ZM15.7174 19.8952V20.1452H15.9996L15.9656 19.8651L15.7174 19.8952ZM4.79531 19.8952L4.54713 19.8651L4.51314 20.1452H4.79531V19.8952ZM11.0959 1.00453C10.9554 0.844895 10.7538 0.752396 10.5411 0.750046L10.5356 1.25002C10.6065 1.2508 10.6737 1.28163 10.7205 1.33484L11.0959 1.00453ZM12.9743 3.13914L11.0959 1.00453L10.7205 1.33484L12.599 3.46945L12.9743 3.13914ZM17.4735 3.05429H12.7866V3.55429H17.4735V3.05429ZM20.2235 5.8043C20.2235 4.28551 18.9923 3.05429 17.4735 3.05429V3.55429C18.7161 3.55429 19.7235 4.56165 19.7235 5.8043H20.2235ZM20.2235 12.0998V5.8043H19.7235V12.0998H20.2235ZM20.2235 18.3952V12.0998H19.7235V18.3952H20.2235ZM17.4735 21.1452C18.9923 21.1452 20.2235 19.914 20.2235 18.3952H19.7235C19.7235 19.6379 18.7161 20.6452 17.4735 20.6452V21.1452ZM3.5 21.1452H17.4735V20.6452H3.5V21.1452ZM0.75 18.3952C0.75 19.914 1.98122 21.1452 3.5 21.1452V20.6452C2.25736 20.6452 1.25 19.6379 1.25 18.3952H0.75ZM0.75 5.8043V18.3952H1.25V5.8043H0.75ZM3.5 3.05429C1.98122 3.05429 0.75 4.28551 0.75 5.8043H1.25C1.25 4.56165 2.25736 3.55429 3.5 3.55429V3.05429ZM8.19347 3.05429H3.5V3.55429H8.19347V3.05429ZM9.98089 0.992208L8.00949 3.13503L8.37746 3.47356L10.3489 1.33074L9.98089 0.992208ZM10.5411 0.750046C10.3285 0.747696 10.1249 0.835717 9.98089 0.992207L10.3489 1.33074C10.3968 1.27857 10.4647 1.24923 10.5356 1.25002L10.5411 0.750046ZM8.96483 4.31209L10.7086 2.41673L10.3406 2.07821L8.59687 3.97356L8.96483 4.31209ZM8.41289 4.55429C8.62264 4.55429 8.82282 4.46645 8.96483 4.31209L8.59687 3.97356C8.54953 4.02501 8.4828 4.05429 8.41289 4.05429V4.55429ZM3.5 4.55429H8.41289V4.05429H3.5V4.55429ZM2.25 5.8043C2.25 5.11394 2.80964 4.55429 3.5 4.55429V4.05429C2.5335 4.05429 1.75 4.8378 1.75 5.8043H2.25ZM2.25 18.3952V5.8043H1.75V18.3952H2.25ZM3.5 19.6452C2.80964 19.6452 2.25 19.0856 2.25 18.3952H1.75C1.75 19.3617 2.5335 20.1452 3.5 20.1452V19.6452ZM3.78935 19.6452H3.5V20.1452H3.78935V19.6452ZM4.03818 19.9194C4.27713 17.4595 6.35105 15.5366 8.87378 15.5366V15.0366C6.09113 15.0366 3.80412 17.1575 3.54052 19.871L4.03818 19.9194ZM8.87378 15.5366H11.6389V15.0366H8.87378V15.5366ZM11.6389 15.5366C14.1617 15.5366 16.2356 17.4595 16.4745 19.9194L16.9722 19.871C16.7086 17.1575 14.4216 15.0366 11.6389 15.0366V15.5366ZM17.4735 19.6452H16.7234V20.1452H17.4735V19.6452ZM18.7235 18.3952C18.7235 19.0856 18.1639 19.6452 17.4735 19.6452V20.1452C18.44 20.1452 19.2235 19.3617 19.2235 18.3952H18.7235ZM18.7235 12.0998V18.3952H19.2235V12.0998H18.7235ZM18.7235 5.8043V12.0998H19.2235V5.8043H18.7235ZM17.4735 4.55429C18.1639 4.55429 18.7235 5.11394 18.7235 5.8043H19.2235C19.2235 4.8378 18.44 4.05429 17.4735 4.05429V4.55429ZM12.5606 4.55429H17.4735V4.05429H12.5606V4.55429ZM11.9976 4.29977C12.14 4.46157 12.3451 4.55429 12.5606 4.55429V4.05429C12.4888 4.05429 12.4204 4.02339 12.3729 3.96945L11.9976 4.29977ZM10.3369 2.41263L11.9976 4.29977L12.3729 3.96945L10.7123 2.08231L10.3369 2.41263ZM15.9656 19.8651C15.7039 17.7078 13.8667 16.0366 11.6389 16.0366V16.5366C13.6108 16.5366 15.2376 18.016 15.4692 19.9253L15.9656 19.8651ZM11.6389 16.0366H8.87378V16.5366H11.6389V16.0366ZM8.87378 16.0366C6.64597 16.0366 4.80886 17.7078 4.54713 19.8651L5.04349 19.9253C5.27513 18.016 6.90188 16.5366 8.87378 16.5366V16.0366ZM15.7174 19.6452H4.79531V20.1452H15.7174V19.6452ZM12.8774 10.256C12.8774 11.6019 11.7864 12.6929 10.4405 12.6929V13.1929C12.0625 13.1929 13.3774 11.878 13.3774 10.256H12.8774ZM10.4405 7.81916C11.7864 7.81916 12.8774 8.91018 12.8774 10.256H13.3774C13.3774 8.63404 12.0625 7.31916 10.4405 7.31916V7.81916ZM8.00365 10.256C8.00365 8.91018 9.09467 7.81916 10.4405 7.81916V7.31916C8.81853 7.31916 7.50365 8.63404 7.50365 10.256H8.00365ZM10.4405 12.6929C9.09467 12.6929 8.00365 11.6019 8.00365 10.256H7.50365C7.50365 11.878 8.81853 13.1929 10.4405 13.1929V12.6929ZM13.8774 10.256C13.8774 12.1542 12.3386 13.6929 10.4405 13.6929V14.1929C12.6148 14.1929 14.3774 12.4303 14.3774 10.256H13.8774ZM10.4405 6.81916C12.3386 6.81916 13.8774 8.3579 13.8774 10.256H14.3774C14.3774 8.08175 12.6148 6.31916 10.4405 6.31916V6.81916ZM7.00365 10.256C7.00365 8.3579 8.54239 6.81916 10.4405 6.81916V6.31916C8.26624 6.31916 6.50365 8.08175 6.50365 10.256H7.00365ZM10.4405 13.6929C8.54239 13.6929 7.00365 12.1542 7.00365 10.256H6.50365C6.50365 12.4303 8.26624 14.1929 10.4405 14.1929V13.6929Z" fill="black"/>
</svg>
