<svg width="16" height="22" viewBox="0 0 16 22" fill="none" xmlns="http://www.w3.org/2000/svg">
<path fill-rule="evenodd" clip-rule="evenodd" d="M13.3333 8.67639H2.66668C2.07757 8.67639 1.60001 9.12411 1.60001 9.67639V19.4999C1.60001 20.0522 2.07757 20.4999 2.66668 20.4999H13.3333C13.9224 20.4999 14.4 20.0522 14.4 19.4999V9.67639C14.4 9.12411 13.9224 8.67639 13.3333 8.67639ZM2.66668 7.17639C1.19391 7.17639 0 8.29568 0 9.67639V19.4999C0 20.8806 1.19391 21.9999 2.66668 21.9999H13.3333C14.8061 21.9999 16 20.8806 16 19.4999V9.67639C16 8.29568 14.8061 7.17639 13.3333 7.17639H2.66668Z" fill="black"/>
<path fill-rule="evenodd" clip-rule="evenodd" d="M5.19699 2.91997C4.6736 3.58325 4.49231 4.3996 4.49231 4.93047V7.17646C4.49231 7.59067 4.13414 7.92646 3.69231 7.92646C3.25048 7.92646 2.8923 7.59067 2.8923 7.17646V4.93047C2.8923 4.15119 3.14178 3.00231 3.9107 2.02788C4.70886 1.0164 6.02521 0.25 8 0.25C9.97479 0.25 11.2911 1.0164 12.0893 2.02788C12.8582 3.00231 13.1077 4.15119 13.1077 4.93047V7.17646C13.1077 7.59067 12.7495 7.92646 12.3077 7.92646C11.8659 7.92646 11.5077 7.59067 11.5077 7.17646V4.93047C11.5077 4.3996 11.3264 3.58325 10.803 2.91997C10.3089 2.29376 9.47136 1.75 8 1.75C6.52864 1.75 5.69113 2.29376 5.19699 2.91997Z" fill="black"/>
</svg>
