<svg width="16" height="16" viewBox="0 0 16 16" fill="none" xmlns="http://www.w3.org/2000/svg">
<path fill-rule="evenodd" clip-rule="evenodd" d="M0.25 1C0.25 0.585786 0.585786 0.25 1 0.25H7.99689C8.4111 0.25 8.74689 0.585786 8.74689 1C8.74689 1.41421 8.4111 1.75 7.99689 1.75H1.75V14.25H8C8.41421 14.25 8.75 14.5858 8.75 15C8.75 15.4142 8.41421 15.75 8 15.75H1C0.585786 15.75 0.25 15.4142 0.25 15V1ZM10.9697 3.96967C11.2626 3.67678 11.7374 3.67678 12.0303 3.96967L15.4881 7.4274C15.6484 7.56496 15.75 7.76906 15.75 7.99689C15.75 7.99741 15.75 7.99793 15.75 7.99845C15.7504 8.19091 15.6772 8.38349 15.5303 8.53033L12.0303 12.0303C11.7374 12.3232 11.2626 12.3232 10.9697 12.0303C10.6768 11.7374 10.6768 11.2626 10.9697 10.9697L13.1925 8.74689H4.88889C4.47468 8.74689 4.13889 8.4111 4.13889 7.99689C4.13889 7.58268 4.47468 7.24689 4.88889 7.24689H13.1862L10.9697 5.03033C10.6768 4.73744 10.6768 4.26256 10.9697 3.96967Z" fill="#CC2B3B" fill-opacity="0.78"/>
</svg>
