<svg width="20" height="22" viewBox="0 0 20 22" fill="none" xmlns="http://www.w3.org/2000/svg">
<path d="M19.2322 3.42745L13.8273 3.42747V1.55532C13.8273 0.685837 13.0353 0 12.063 0H7.93668C6.96432 0 6.17276 0.685837 6.17276 1.55532V3.42747H0.767756C0.343931 3.42747 0 3.73503 0 4.11399C0 4.49296 0.343931 4.80052 0.767756 4.80052H1.82378L3.60497 20.6747C3.67945 21.4175 4.38732 22 5.21573 22H14.7839C15.6123 22 16.3194 21.4175 16.3935 20.6812L18.1762 4.80018H19.2322C19.6564 4.80018 20 4.49261 20 4.11365C20 3.73469 19.6564 3.42745 19.2322 3.42745H19.2322ZM7.70825 1.55534C7.70825 1.44309 7.81072 1.35142 7.93666 1.35142H12.063C12.1889 1.35142 12.2918 1.44309 12.2918 1.55534V3.42749H7.70825V1.55534ZM14.8649 20.5515C14.861 20.5896 14.8108 20.6273 14.7839 20.6273H5.21573C5.18886 20.6273 5.13818 20.5899 5.13355 20.5449L3.36695 4.80088H16.6326L14.8649 20.5515Z" fill="#CC2B3B"/>
</svg>
